<svg width="1445" height="221" viewBox="0 0 1445 221" fill="none" xmlns="http://www.w3.org/2000/svg">
<path d="M1421.32 173.643V47.3571H1440.72V173.643H1421.32ZM1431.19 26.3095C1427.4 26.3095 1424.14 25.0215 1421.4 22.4453C1418.71 19.8692 1417.37 16.7723 1417.37 13.1548C1417.37 9.5372 1418.71 6.44035 1421.4 3.86421C1424.14 1.28807 1427.4 0 1431.19 0C1434.97 0 1438.2 1.28807 1440.89 3.86421C1443.63 6.44035 1445 9.5372 1445 13.1548C1445 16.7723 1443.63 19.8692 1440.89 22.4453C1438.2 25.0215 1434.97 26.3095 1431.19 26.3095Z" fill="#14151A"/>
<path d="M1220.06 173.643V47.3571H1238.81V67.0893H1240.45C1243.09 60.3475 1247.33 55.113 1253.2 51.3858C1259.07 47.6038 1266.11 45.7128 1274.33 45.7128C1282.67 45.7128 1289.6 47.6038 1295.14 51.3858C1300.73 55.113 1305.09 60.3475 1308.21 67.0893H1309.53C1312.76 60.5667 1317.61 55.387 1324.08 51.5502C1330.55 47.6586 1338.31 45.7128 1347.35 45.7128C1358.65 45.7128 1367.88 49.2481 1375.06 56.3188C1382.25 63.3347 1385.84 74.2696 1385.84 89.1235V173.643H1366.43V89.1235C1366.43 79.8055 1363.88 73.1459 1358.78 69.1447C1353.68 65.1434 1347.68 63.1428 1340.77 63.1428C1331.89 63.1428 1325.01 65.8286 1320.13 71.2001C1315.26 76.5168 1312.82 83.2586 1312.82 91.4256V173.643H1293.08V87.1503C1293.08 79.97 1290.75 74.1874 1286.09 69.8024C1281.43 65.3627 1275.43 63.1428 1268.08 63.1428C1263.04 63.1428 1258.33 64.4857 1253.94 67.1715C1249.61 69.8572 1246.1 73.5844 1243.41 78.353C1240.78 83.0668 1239.47 88.5206 1239.47 94.7143V173.643H1220.06Z" fill="#14151A"/>
<path d="M1138.24 176.274C1126.07 176.274 1115.57 173.588 1106.75 168.216C1097.98 162.79 1091.21 155.226 1086.44 145.525C1081.72 135.768 1079.37 124.422 1079.37 111.487C1079.37 98.5511 1081.72 87.1503 1086.44 77.2842C1091.21 67.3633 1097.84 59.6349 1106.34 54.0989C1114.89 48.5082 1124.87 45.7128 1136.27 45.7128C1142.85 45.7128 1149.34 46.809 1155.76 49.0015C1162.17 51.1939 1168.01 54.7567 1173.27 59.6897C1178.53 64.5679 1182.73 71.0357 1185.85 79.093C1188.98 87.1503 1190.54 97.0712 1190.54 108.856V117.077H1093.18V100.305H1170.81C1170.81 93.1795 1169.38 86.8214 1166.53 81.2306C1163.73 75.6399 1159.73 71.2275 1154.52 67.9937C1149.37 64.7598 1143.29 63.1428 1136.27 63.1428C1128.54 63.1428 1121.85 65.0612 1116.2 68.898C1110.61 72.68 1106.31 77.6131 1103.29 83.6971C1100.28 89.7812 1098.77 96.3038 1098.77 103.265V114.446C1098.77 123.984 1100.42 132.068 1103.71 138.7C1107.05 145.278 1111.68 150.293 1117.6 153.746C1123.52 157.145 1130.4 158.844 1138.24 158.844C1143.34 158.844 1147.95 158.131 1152.06 156.706C1156.22 155.226 1159.81 153.034 1162.83 150.129C1165.84 147.169 1168.17 143.496 1169.82 139.112L1188.57 144.373C1186.59 150.732 1183.28 156.322 1178.62 161.146C1173.96 165.914 1168.2 169.642 1161.35 172.327C1154.5 174.958 1146.79 176.274 1138.24 176.274Z" fill="#14151A"/>
<path d="M973.413 221C970.124 221 967.191 220.726 964.615 220.178C962.038 219.685 960.257 219.191 959.27 218.698L964.204 201.597C968.918 202.803 973.084 203.241 976.702 202.912C980.321 202.583 983.528 200.966 986.323 198.061C989.174 195.211 991.778 190.58 994.135 184.167L997.753 174.301L951.047 47.3572H972.098L1006.96 147.991H1008.28L1043.14 47.3572H1064.19L1010.58 192.06C1008.17 198.582 1005.18 203.981 1001.62 208.256C998.055 212.586 993.916 215.793 989.201 217.876C984.542 219.959 979.279 221 973.413 221Z" fill="#14151A"/>
<path d="M882.94 176.274C870.77 176.274 860.272 173.588 851.446 168.216C842.675 162.79 835.905 155.226 831.136 145.525C826.421 135.768 824.064 124.422 824.064 111.487C824.064 98.5511 826.421 87.1503 831.136 77.2842C835.905 67.3633 842.538 59.6349 851.035 54.0989C859.587 48.5082 869.564 45.7128 880.967 45.7128C887.545 45.7128 894.041 46.809 900.455 49.0015C906.869 51.1939 912.707 54.7567 917.97 59.6897C923.233 64.5679 927.426 71.0357 930.551 79.093C933.676 87.1503 935.238 97.0712 935.238 108.856V117.077H837.878V100.305H915.503C915.503 93.1795 914.078 86.8214 911.227 81.2306C908.431 75.6399 904.43 71.2275 899.222 67.9937C894.069 64.7598 887.984 63.1428 880.967 63.1428C873.237 63.1428 866.549 65.0612 860.903 68.898C855.311 72.68 851.008 77.6131 847.993 83.6971C844.978 89.7812 843.47 96.3038 843.47 103.265V114.446C843.47 123.984 845.115 132.068 848.404 138.7C851.748 145.278 856.38 150.293 862.301 153.746C868.221 157.145 875.101 158.844 882.94 158.844C888.038 158.844 892.643 158.131 896.755 156.706C900.921 155.226 904.512 153.034 907.527 150.129C910.542 147.169 912.872 143.496 914.516 139.112L933.265 144.373C931.291 150.732 927.975 156.322 923.315 161.146C918.655 165.914 912.899 169.642 906.047 172.327C899.194 174.958 891.492 176.274 882.94 176.274Z" fill="#14151A"/>
<path d="M733.858 176.274C723.333 176.274 714.041 173.615 705.982 168.299C697.924 162.927 691.619 155.363 687.069 145.607C682.519 135.796 680.244 124.203 680.244 110.829C680.244 97.5645 682.519 86.0541 687.069 76.2977C691.619 66.5412 697.951 59.0046 706.064 53.6879C714.178 48.3712 723.552 45.7128 734.187 45.7128C742.41 45.7128 748.906 47.0831 753.675 49.8237C758.499 52.5095 762.172 55.5789 764.694 59.032C767.271 62.4303 769.271 65.2257 770.697 67.4182H772.341V5.26195H791.748V173.643H772.999V154.24H770.697C769.271 156.542 767.243 159.447 764.612 162.955C761.98 166.408 758.225 169.505 753.346 172.245C748.467 174.931 741.971 176.274 733.858 176.274ZM736.489 158.844C744.274 158.844 750.852 156.816 756.224 152.76C761.597 148.649 765.681 142.976 768.477 135.741C771.272 128.451 772.67 120.037 772.67 110.5C772.67 101.072 771.3 92.8233 768.559 85.7526C765.818 78.6271 761.761 73.0912 756.389 69.1448C751.017 65.1435 744.383 63.1429 736.489 63.1429C728.266 63.1429 721.414 65.2531 715.932 69.4736C710.505 73.6393 706.421 79.3123 703.68 86.4926C700.994 93.6181 699.65 101.621 699.65 110.5C699.65 119.489 701.021 127.656 703.762 135.001C706.558 142.291 710.669 148.101 716.096 152.431C721.578 156.706 728.376 158.844 736.489 158.844Z" fill="#14151A"/>
<path d="M539.221 173.643H517.841L579.677 5.26195H600.728L662.565 173.643H641.185L590.861 31.9003H589.545L539.221 173.643ZM547.115 107.869H633.291V125.957H547.115V107.869Z" fill="#14151A"/>
<path d="M433.042 75.6399L415.609 80.5729C414.512 77.6679 412.895 74.8451 410.757 72.1045C408.674 69.3091 405.824 67.007 402.205 65.1983C398.587 63.3895 393.955 62.4851 388.309 62.4851C380.579 62.4851 374.138 64.2665 368.985 67.8292C363.886 71.3372 361.337 75.8043 361.337 81.2306C361.337 86.054 363.092 89.8634 366.6 92.6588C370.109 95.4542 375.59 97.7837 383.046 99.6473L401.794 104.251C413.087 106.992 421.502 111.185 427.039 116.831C432.576 122.421 435.344 129.629 435.344 138.454C435.344 145.689 433.261 152.157 429.095 157.857C424.983 163.558 419.227 168.052 411.826 171.341C404.426 174.629 395.819 176.274 386.006 176.274C373.124 176.274 362.461 173.478 354.019 167.888C345.577 162.297 340.232 154.13 337.984 143.387L356.404 138.783C358.158 145.579 361.474 150.677 366.353 154.075C371.287 157.473 377.728 159.173 385.677 159.173C394.723 159.173 401.904 157.254 407.221 153.417C412.594 149.526 415.28 144.867 415.28 139.44C415.28 135.056 413.745 131.383 410.675 128.423C407.605 125.409 402.891 123.161 396.532 121.682L375.481 116.748C363.914 114.008 355.417 109.76 349.99 104.005C344.617 98.1948 341.931 90.9323 341.931 82.2172C341.931 75.0917 343.932 68.7884 347.934 63.3073C351.991 57.8261 357.5 53.5234 364.462 50.3992C371.479 47.2749 379.428 45.7128 388.309 45.7128C400.808 45.7128 410.62 48.4533 417.747 53.9345C424.928 59.4156 430.026 66.6508 433.042 75.6399Z" fill="#14151A"/>
<path d="M288.626 173.643V47.3571H308.032V173.643H288.626ZM298.493 26.3095C294.711 26.3095 291.449 25.0215 288.708 22.4453C286.022 19.8692 284.679 16.7723 284.679 13.1548C284.679 9.5372 286.022 6.44035 288.708 3.86421C291.449 1.28807 294.711 0 298.493 0C302.276 0 305.51 1.28807 308.196 3.86421C310.937 6.44035 312.308 9.5372 312.308 13.1548C312.308 16.7723 310.937 19.8692 308.196 22.4453C305.51 25.0215 302.276 26.3095 298.493 26.3095Z" fill="#14151A"/>
<path d="M202.47 173.643V47.3571H221.218V66.4315H222.534C224.836 60.183 229.003 55.1129 235.033 51.2213C241.063 47.3297 247.861 45.3839 255.426 45.3839C256.851 45.3839 258.633 45.4113 260.771 45.4661C262.909 45.5209 264.526 45.6031 265.622 45.7128V65.4449C264.964 65.2805 263.457 65.0338 261.1 64.7049C258.797 64.3213 256.358 64.1294 253.781 64.1294C247.641 64.1294 242.159 65.4175 237.335 67.9936C232.566 70.515 228.783 74.0229 225.987 78.5174C223.246 82.9572 221.876 88.0272 221.876 93.7276V173.643H202.47Z" fill="#14151A"/>
<path d="M106.343 176.274C95.818 176.274 86.5261 173.615 78.4676 168.299C70.4091 162.927 64.1048 155.363 59.5548 145.607C55.0047 135.796 52.7297 124.203 52.7297 110.829C52.7297 97.5645 55.0047 86.0541 59.5548 76.2977C64.1048 66.5412 70.4365 59.0046 78.5498 53.6879C86.6631 48.3712 96.0373 45.7128 106.672 45.7128C114.895 45.7128 121.391 47.0831 126.161 49.8237C130.985 52.5095 134.658 55.5789 137.18 59.032C139.756 62.4303 141.757 65.2257 143.182 67.4182H144.827V5.26195H164.233V173.643H145.485V154.24H143.182C141.757 156.542 139.729 159.447 137.097 162.955C134.466 166.408 130.711 169.505 125.832 172.245C120.953 174.931 114.457 176.274 106.343 176.274ZM108.975 158.844C116.759 158.844 123.338 156.816 128.71 152.76C134.082 148.649 138.166 142.976 140.962 135.741C143.758 128.451 145.156 120.037 145.156 110.5C145.156 101.072 143.785 92.8233 141.044 85.7526C138.303 78.6271 134.247 73.0912 128.874 69.1448C123.502 65.1435 116.869 63.1429 108.975 63.1429C100.752 63.1429 93.8993 65.2531 88.4174 69.4736C82.9902 73.6393 78.9061 79.3123 76.1651 86.4926C73.479 93.6181 72.1359 101.621 72.1359 110.5C72.1359 119.489 73.5064 127.656 76.2474 135.001C79.0432 142.291 83.1547 148.101 88.5818 152.431C94.0638 156.706 100.861 158.844 108.975 158.844Z" fill="#14151A"/>
<path d="M20.3929 5.26195V173.643H0V5.26195H20.3929Z" fill="#14151A"/>
</svg>
